# Blender 4.0.2
# www.blender.org
mtllib Monitor.mtl
o lp
v 120.000000 -12.000000 -34.029999
v 118.000000 -14.000000 -196.030457
v 120.000000 -12.000000 -194.030457
v 118.000000 -14.000000 -32.029999
v 283.857391 -14.000000 -196.030457
v 285.857391 -12.000000 -34.029999
v 285.857391 -12.000000 -194.030457
v 283.857391 -14.000000 -32.029999
v 275.000000 -12.000000 -39.029999
v 125.000000 -12.000000 -39.029999
v 125.000000 -12.000000 -189.029999
v 275.000000 -12.000000 -189.029999
v 254.089539 -12.000000 -162.701218
v 254.089539 -12.000000 -165.358765
v 254.299988 -12.000000 -164.029999
v 253.478760 -12.000000 -161.502518
v 253.478760 -12.000000 -166.557465
v 252.527466 -12.000000 -160.551224
v 252.527466 -12.000000 -167.508759
v 251.328766 -12.000000 -159.940445
v 251.328766 -12.000000 -168.119537
v 250.000000 -12.000000 -159.729996
v 250.000000 -12.000000 -168.329987
v 248.671219 -12.000000 -159.940445
v 248.671219 -12.000000 -168.119537
v 247.472519 -12.000000 -160.551224
v 247.472519 -12.000000 -167.508759
v 246.521225 -12.000000 -161.502518
v 246.521225 -12.000000 -166.557465
v 245.910446 -12.000000 -162.701218
v 245.910446 -12.000000 -165.358765
v 245.699997 -12.000000 -164.029999
v 254.089539 -12.000000 -62.701218
v 254.089539 -12.000000 -65.358765
v 254.299988 -12.000000 -64.029999
v 253.478760 -12.000000 -61.502518
v 253.478760 -12.000000 -66.557465
v 252.527466 -12.000000 -60.551224
v 252.527466 -12.000000 -67.508759
v 251.328766 -12.000000 -59.940445
v 251.328766 -12.000000 -68.119537
v 250.000000 -12.000000 -59.729996
v 250.000000 -12.000000 -68.329987
v 248.671219 -12.000000 -59.940445
v 248.671219 -12.000000 -68.119537
v 247.472519 -12.000000 -60.551224
v 247.472519 -12.000000 -67.508759
v 246.521225 -12.000000 -61.502518
v 246.521225 -12.000000 -66.557465
v 245.910446 -12.000000 -62.701218
v 245.910446 -12.000000 -65.358765
v 245.699997 -12.000000 -64.029999
v 154.089539 -12.000000 -62.701218
v 154.089539 -12.000000 -65.358765
v 154.299988 -12.000000 -64.029999
v 153.478760 -12.000000 -61.502518
v 153.478760 -12.000000 -66.557465
v 152.527466 -12.000000 -60.551224
v 152.527466 -12.000000 -67.508759
v 151.328766 -12.000000 -59.940445
v 151.328766 -12.000000 -68.119537
v 150.000000 -12.000000 -59.729996
v 150.000000 -12.000000 -68.329987
v 148.671219 -12.000000 -59.940445
v 148.671219 -12.000000 -68.119537
v 147.472519 -12.000000 -60.551224
v 147.472519 -12.000000 -67.508759
v 146.521225 -12.000000 -61.502518
v 146.521225 -12.000000 -66.557465
v 145.910446 -12.000000 -62.701218
v 145.910446 -12.000000 -65.358765
v 145.699997 -12.000000 -64.029999
v 154.089539 -12.000000 -162.701218
v 154.089539 -12.000000 -165.358765
v 154.299988 -12.000000 -164.029999
v 153.478760 -12.000000 -161.502518
v 153.478760 -12.000000 -166.557465
v 152.527466 -12.000000 -160.551224
v 152.527466 -12.000000 -167.508759
v 151.328766 -12.000000 -159.940445
v 151.328766 -12.000000 -168.119537
v 150.000000 -12.000000 -159.729996
v 150.000000 -12.000000 -168.329987
v 148.671219 -12.000000 -159.940445
v 148.671219 -12.000000 -168.119537
v 147.472519 -12.000000 -160.551224
v 147.472519 -12.000000 -167.508759
v 146.521225 -12.000000 -161.502518
v 146.521225 -12.000000 -166.557465
v 145.910446 -12.000000 -162.701218
v 145.910446 -12.000000 -165.358765
v 145.699997 -12.000000 -164.029999
v 410.000000 -14.000000 21.500000
v 410.000000 -14.000000 -249.559998
v -10.000000 -14.000000 21.500000
v -10.000000 -14.000000 -249.559998
v -10.000000 6.000000 -249.559998
v -10.000000 6.000000 21.500000
v 410.000000 6.000000 -249.559998
v 410.000000 6.000000 21.500000
v 0.000000 -10.000000 -231.000000
v 12.500000 -10.000000 0.000000
v 12.500000 -10.000000 -231.000000
v 0.000000 -10.000000 0.000000
v 27.500000 -10.000000 -231.000000
v 27.500000 -10.000000 -239.549988
v 27.500000 -10.000000 0.000000
v 12.500000 -10.000000 -239.549988
v 27.500000 -10.000000 8.549988
v 12.500000 -10.000000 8.549988
v 372.500000 -10.000000 -231.000000
v 345.250000 -10.000000 0.000000
v 372.500000 -10.000000 0.000000
v 54.750000 -10.000000 0.000000
v 345.250000 -10.000000 17.489990
v 387.500000 -10.000000 -231.000000
v 387.500000 -10.000000 -239.549988
v 387.500000 -10.000000 0.000000
v 372.500000 -10.000000 -239.549988
v 387.500000 -10.000000 8.549988
v 372.500000 -10.000000 8.549988
v 400.000000 -10.000000 0.000000
v 400.000000 -10.000000 -231.000000
v 54.750000 -10.000000 17.489990
v 372.500000 4.000000 8.549988
v 372.500000 4.000000 0.000000
v 387.500000 4.000000 8.549988
v 387.500000 4.000000 0.000000
v 400.000000 4.000000 0.000000
v 400.000000 4.000000 -231.000000
v 387.500000 4.000000 -231.000000
v 387.500000 4.000000 -239.549988
v 372.500000 4.000000 -239.549988
v 372.500000 4.000000 -231.000000
v 27.500000 4.000000 -231.000000
v 27.500000 4.000000 -239.549988
v 12.500000 4.000000 -239.549988
v 12.500000 4.000000 -231.000000
v 0.000000 4.000000 -231.000000
v 0.000000 4.000000 0.000000
v 12.500000 4.000000 0.000000
v 12.500000 4.000000 8.549988
v 27.500000 4.000000 8.549988
v 27.500000 4.000000 0.000000
v 54.750000 4.000000 0.000000
v 54.750000 4.000000 17.489990
v 345.250000 4.000000 17.489990
v 345.250000 4.000000 0.000000
v 391.000000 6.000000 -8.000000
v 391.000000 6.000000 -223.000000
v 9.000000 6.000000 -223.000000
v 9.000000 6.000000 -8.000000
v 391.000000 4.000000 -8.000000
v 9.000000 4.000000 -8.000000
v 9.000000 4.000000 -223.000000
v 391.000000 4.000000 -223.000000
v 246.521225 -16.000000 -66.557465
v 153.478760 -16.000000 -66.557465
v 246.521225 -16.000000 -161.502518
v 154.089539 -16.000000 -162.701218
v 154.299988 -16.000000 -164.029999
v 153.478760 -16.000000 -161.502518
v 152.527466 -16.000000 -67.508759
v 152.527466 -16.000000 -160.551224
v 151.328766 -16.000000 -68.119537
v 151.328766 -16.000000 -159.940445
v 150.000000 -16.000000 -68.329987
v 150.000000 -16.000000 -159.729996
v 148.671219 -16.000000 -68.119537
v 148.671219 -16.000000 -159.940445
v 147.472519 -16.000000 -67.508759
v 147.472519 -16.000000 -160.551224
v 146.521225 -16.000000 -66.557465
v 146.521225 -16.000000 -161.502518
v 125.000000 -16.000000 -39.029999
v 145.910446 -16.000000 -65.358765
v 145.699997 -16.000000 -64.029999
v 125.000000 -16.000000 -189.029999
v 275.000000 -16.000000 -39.029999
v 253.478760 -16.000000 -66.557465
v 275.000000 -16.000000 -189.029999
v 254.089539 -16.000000 -162.701218
v 254.299988 -16.000000 -164.029999
v 253.478760 -16.000000 -161.502518
v 252.527466 -16.000000 -67.508759
v 252.527466 -16.000000 -160.551224
v 251.328766 -16.000000 -68.119537
v 251.328766 -16.000000 -159.940445
v 250.000000 -16.000000 -68.329987
v 250.000000 -16.000000 -159.729996
v 248.671219 -16.000000 -68.119537
v 248.671219 -16.000000 -159.940445
v 247.472519 -16.000000 -67.508759
v 247.472519 -16.000000 -160.551224
v 154.089539 -16.000000 -65.358765
v 245.910446 -16.000000 -65.358765
v 154.299988 -16.000000 -64.029999
v 245.699997 -16.000000 -64.029999
v 254.089539 -16.000000 -65.358765
v 254.299988 -16.000000 -64.029999
v 254.089539 -16.000000 -62.701218
v 253.478760 -16.000000 -61.502518
v 252.527466 -16.000000 -60.551224
v 251.328766 -16.000000 -59.940445
v 250.000000 -16.000000 -59.729996
v 248.671219 -16.000000 -59.940445
v 247.472519 -16.000000 -60.551224
v 245.910446 -16.000000 -162.701218
v 245.910446 -16.000000 -62.701218
v 154.089539 -16.000000 -62.701218
v 246.521225 -16.000000 -61.502518
v 153.478760 -16.000000 -61.502518
v 152.527466 -16.000000 -60.551224
v 151.328766 -16.000000 -59.940445
v 150.000000 -16.000000 -59.729996
v 145.910446 -16.000000 -162.701218
v 145.910446 -16.000000 -62.701218
v 146.521225 -16.000000 -61.502518
v 147.472519 -16.000000 -60.551224
v 148.671219 -16.000000 -59.940445
v 254.089539 -16.000000 -165.358765
v 253.478760 -16.000000 -166.557465
v 252.527466 -16.000000 -167.508759
v 251.328766 -16.000000 -168.119537
v 250.000000 -16.000000 -168.329987
v 248.671219 -16.000000 -168.119537
v 247.472519 -16.000000 -167.508759
v 245.699997 -16.000000 -164.029999
v 245.910446 -16.000000 -165.358765
v 154.089539 -16.000000 -165.358765
v 246.521225 -16.000000 -166.557465
v 153.478760 -16.000000 -166.557465
v 152.527466 -16.000000 -167.508759
v 151.328766 -16.000000 -168.119537
v 150.000000 -16.000000 -168.329987
v 148.671219 -16.000000 -168.119537
v 145.699997 -16.000000 -164.029999
v 147.472519 -16.000000 -167.508759
v 146.521225 -16.000000 -166.557465
v 145.910446 -16.000000 -165.358765
vn 0.7071 -0.7071 -0.0000
vn -0.7071 0.7071 -0.0000
vn -0.0000 -0.7071 -0.7071
vn -0.0000 -0.7071 0.7071
vn -0.0000 -1.0000 -0.0000
vn -1.0000 -0.0000 -0.0000
vn -0.0000 -0.0000 -1.0000
vn 1.0000 -0.0000 -0.0000
vn -0.0000 -0.0000 1.0000
vn -0.0000 1.0000 -0.0000
vn 0.4540 -0.0000 -0.8910
vn 0.7071 -0.0000 -0.7071
vn 0.8910 -0.0000 -0.4540
vn 0.9877 -0.0000 -0.1564
vn 0.9877 -0.0000 0.1564
vn 0.8910 -0.0000 0.4540
vn 0.7071 -0.0000 0.7071
vn 0.4540 -0.0000 0.8910
vn 0.1564 -0.0000 0.9877
vn -0.1564 -0.0000 0.9877
vn -0.4540 -0.0000 0.8910
vn -0.7071 -0.0000 0.7071
vn -0.8910 -0.0000 0.4540
vn -0.9877 -0.0000 0.1564
vn -0.9877 -0.0000 -0.1564
vn -0.8910 -0.0000 -0.4540
vn -0.7071 -0.0000 -0.7071
vn -0.4540 -0.0000 -0.8910
vn -0.1564 -0.0000 -0.9877
vn 0.1564 -0.0000 -0.9877
s 0
f 1//1 2//1 3//1
f 2//1 1//1 4//1
f 5//2 6//2 7//2
f 6//2 5//2 8//2
f 8//3 1//3 6//3
f 1//3 8//3 4//3
f 5//4 3//4 2//4
f 3//4 5//4 7//4
f 6//5 9//5 7//5
f 1//5 9//5 6//5
f 10//5 1//5 11//5
f 9//5 1//5 10//5
f 12//5 7//5 9//5
f 3//5 12//5 11//5
f 12//5 3//5 7//5
f 3//5 11//5 1//5
f 13//5 14//5 15//5
f 16//5 14//5 13//5
f 16//5 17//5 14//5
f 18//5 17//5 16//5
f 18//5 19//5 17//5
f 20//5 19//5 18//5
f 20//5 21//5 19//5
f 22//5 21//5 20//5
f 22//5 23//5 21//5
f 24//5 23//5 22//5
f 24//5 25//5 23//5
f 26//5 25//5 24//5
f 26//5 27//5 25//5
f 28//5 27//5 26//5
f 28//5 29//5 27//5
f 30//5 29//5 28//5
f 30//5 31//5 29//5
f 31//5 30//5 32//5
f 33//5 34//5 35//5
f 36//5 34//5 33//5
f 36//5 37//5 34//5
f 38//5 37//5 36//5
f 38//5 39//5 37//5
f 40//5 39//5 38//5
f 40//5 41//5 39//5
f 42//5 41//5 40//5
f 42//5 43//5 41//5
f 44//5 43//5 42//5
f 44//5 45//5 43//5
f 46//5 45//5 44//5
f 46//5 47//5 45//5
f 48//5 47//5 46//5
f 48//5 49//5 47//5
f 50//5 49//5 48//5
f 50//5 51//5 49//5
f 51//5 50//5 52//5
f 53//5 54//5 55//5
f 56//5 54//5 53//5
f 56//5 57//5 54//5
f 58//5 57//5 56//5
f 58//5 59//5 57//5
f 60//5 59//5 58//5
f 60//5 61//5 59//5
f 62//5 61//5 60//5
f 62//5 63//5 61//5
f 64//5 63//5 62//5
f 64//5 65//5 63//5
f 66//5 65//5 64//5
f 66//5 67//5 65//5
f 68//5 67//5 66//5
f 68//5 69//5 67//5
f 70//5 69//5 68//5
f 70//5 71//5 69//5
f 71//5 70//5 72//5
f 73//5 74//5 75//5
f 76//5 74//5 73//5
f 76//5 77//5 74//5
f 78//5 77//5 76//5
f 78//5 79//5 77//5
f 80//5 79//5 78//5
f 80//5 81//5 79//5
f 82//5 81//5 80//5
f 82//5 83//5 81//5
f 84//5 83//5 82//5
f 84//5 85//5 83//5
f 86//5 85//5 84//5
f 86//5 87//5 85//5
f 88//5 87//5 86//5
f 88//5 89//5 87//5
f 90//5 89//5 88//5
f 90//5 91//5 89//5
f 91//5 90//5 92//5
f 93//5 8//5 94//5
f 93//5 4//5 8//5
f 4//5 95//5 2//5
f 95//5 4//5 93//5
f 5//5 94//5 8//5
f 2//5 94//5 5//5
f 2//5 96//5 94//5
f 96//5 2//5 95//5
f 95//6 97//6 96//6
f 97//6 95//6 98//6
f 94//7 97//7 99//7
f 97//7 94//7 96//7
f 100//8 94//8 99//8
f 94//8 100//8 93//8
f 95//9 100//9 98//9
f 100//9 95//9 93//9
f 101//10 102//10 103//10
f 102//10 101//10 104//10
f 103//10 105//10 106//10
f 105//10 103//10 107//10
f 103//10 106//10 108//10
f 102//10 107//10 103//10
f 107//10 102//10 109//10
f 109//10 102//10 110//10
f 111//10 112//10 113//10
f 112//10 114//10 115//10
f 111//10 114//10 112//10
f 105//10 114//10 111//10
f 114//10 105//10 107//10
f 111//10 116//10 117//10
f 116//10 111//10 118//10
f 111//10 117//10 119//10
f 113//10 118//10 111//10
f 118//10 113//10 120//10
f 120//10 113//10 121//10
f 116//10 122//10 123//10
f 122//10 116//10 118//10
f 115//10 114//10 124//10
f 125//8 113//8 126//8
f 113//8 125//8 121//8
f 120//7 125//7 127//7
f 125//7 120//7 121//7
f 120//6 128//6 118//6
f 128//6 120//6 127//6
f 122//7 128//7 129//7
f 128//7 122//7 118//7
f 122//6 130//6 123//6
f 130//6 122//6 129//6
f 116//9 130//9 131//9
f 130//9 116//9 123//9
f 116//6 132//6 117//6
f 132//6 116//6 131//6
f 119//9 132//9 133//9
f 132//9 119//9 117//9
f 134//8 119//8 133//8
f 119//8 134//8 111//8
f 105//9 134//9 135//9
f 134//9 105//9 111//9
f 105//6 136//6 106//6
f 136//6 105//6 135//6
f 108//9 136//9 137//9
f 136//9 108//9 106//9
f 138//8 108//8 137//8
f 108//8 138//8 103//8
f 101//9 138//9 139//9
f 138//9 101//9 103//9
f 140//8 101//8 139//8
f 101//8 140//8 104//8
f 102//7 140//7 141//7
f 140//7 102//7 104//7
f 142//8 102//8 141//8
f 102//8 142//8 110//8
f 109//7 142//7 143//7
f 142//7 109//7 110//7
f 109//6 144//6 107//6
f 144//6 109//6 143//6
f 114//7 144//7 145//7
f 144//7 114//7 107//7
f 146//8 114//8 145//8
f 114//8 146//8 124//8
f 115//7 146//7 147//7
f 146//7 115//7 124//7
f 115//6 148//6 112//6
f 148//6 115//6 147//6
f 113//7 148//7 126//7
f 148//7 113//7 112//7
f 149//10 99//10 150//10
f 99//10 151//10 150//10
f 151//10 97//10 152//10
f 97//10 151//10 99//10
f 99//10 149//10 100//10
f 152//10 100//10 149//10
f 152//10 98//10 100//10
f 98//10 152//10 97//10
f 143//5 142//5 144//5
f 147//5 146//5 148//5
f 127//5 125//5 128//5
f 129//5 153//5 130//5
f 128//5 153//5 129//5
f 126//5 128//5 125//5
f 128//5 126//5 153//5
f 148//5 153//5 126//5
f 145//5 148//5 146//5
f 148//5 145//5 153//5
f 154//5 145//5 144//5
f 141//5 144//5 142//5
f 154//5 144//5 141//5
f 145//5 154//5 153//5
f 154//5 140//5 155//5
f 140//5 154//5 141//5
f 156//5 130//5 153//5
f 156//5 131//5 130//5
f 131//5 134//5 132//5
f 156//5 134//5 131//5
f 156//5 135//5 134//5
f 135//5 138//5 136//5
f 155//5 135//5 156//5
f 135//5 155//5 138//5
f 155//5 139//5 138//5
f 139//5 155//5 140//5
f 132//5 134//5 133//5
f 136//5 138//5 137//5
f 152//8 155//8 151//8
f 155//8 152//8 154//8
f 155//9 150//9 151//9
f 150//9 155//9 156//9
f 153//6 150//6 156//6
f 150//6 153//6 149//6
f 153//7 152//7 149//7
f 152//7 153//7 154//7
f 157//5 158//5 159//5
f 159//5 160//5 161//5
f 162//5 159//5 158//5
f 159//5 162//5 160//5
f 163//5 162//5 158//5
f 163//5 164//5 162//5
f 165//5 164//5 163//5
f 165//5 166//5 164//5
f 167//5 166//5 165//5
f 167//5 168//5 166//5
f 169//5 168//5 167//5
f 169//5 170//5 168//5
f 171//5 170//5 169//5
f 171//5 172//5 170//5
f 173//5 172//5 171//5
f 173//5 174//5 172//5
f 175//5 173//5 176//5
f 173//5 175//5 174//5
f 175//5 176//5 177//5
f 178//5 174//5 175//5
f 179//5 180//5 181//5
f 181//5 182//5 183//5
f 184//5 181//5 180//5
f 181//5 184//5 182//5
f 185//5 184//5 180//5
f 185//5 186//5 184//5
f 187//5 186//5 185//5
f 187//5 188//5 186//5
f 189//5 188//5 187//5
f 189//5 190//5 188//5
f 191//5 190//5 189//5
f 191//5 192//5 190//5
f 193//5 192//5 191//5
f 193//5 194//5 192//5
f 157//5 194//5 193//5
f 157//5 159//5 194//5
f 195//5 196//5 197//5
f 196//5 195//5 157//5
f 197//5 196//5 198//5
f 158//5 157//5 195//5
f 199//5 179//5 200//5
f 179//5 201//5 200//5
f 179//5 202//5 201//5
f 179//5 203//5 202//5
f 179//5 204//5 203//5
f 179//5 205//5 204//5
f 179//5 206//5 205//5
f 179//5 207//5 206//5
f 159//5 161//5 208//5
f 209//5 197//5 198//5
f 210//5 209//5 211//5
f 212//5 211//5 207//5
f 213//5 207//5 179//5
f 209//5 210//5 197//5
f 211//5 212//5 210//5
f 207//5 213//5 212//5
f 175//5 213//5 179//5
f 213//5 175//5 214//5
f 214//5 175//5 215//5
f 174//5 178//5 216//5
f 217//5 175//5 177//5
f 218//5 175//5 217//5
f 219//5 175//5 218//5
f 220//5 175//5 219//5
f 215//5 175//5 220//5
f 180//5 179//5 199//5
f 221//5 181//5 183//5
f 222//5 181//5 221//5
f 223//5 181//5 222//5
f 224//5 181//5 223//5
f 225//5 181//5 224//5
f 226//5 181//5 225//5
f 227//5 181//5 226//5
f 208//5 161//5 228//5
f 228//5 161//5 229//5
f 230//5 229//5 161//5
f 229//5 230//5 231//5
f 232//5 231//5 230//5
f 231//5 232//5 227//5
f 233//5 227//5 232//5
f 227//5 233//5 181//5
f 178//5 233//5 234//5
f 178//5 234//5 235//5
f 178//5 235//5 236//5
f 216//5 178//5 237//5
f 233//5 178//5 181//5
f 238//5 178//5 236//5
f 239//5 178//5 238//5
f 240//5 178//5 239//5
f 237//5 178//5 240//5
f 181//7 11//7 12//7
f 11//7 181//7 178//7
f 175//6 11//6 178//6
f 11//6 175//6 10//6
f 175//9 9//9 10//9
f 9//9 175//9 179//9
f 9//8 181//8 12//8
f 181//8 9//8 179//8
f 192//11 26//11 24//11
f 26//11 192//11 194//11
f 26//12 159//12 28//12
f 159//12 26//12 194//12
f 28//13 208//13 30//13
f 208//13 28//13 159//13
f 30//14 228//14 32//14
f 228//14 30//14 208//14
f 32//15 229//15 31//15
f 229//15 32//15 228//15
f 31//16 231//16 29//16
f 231//16 31//16 229//16
f 29//17 227//17 27//17
f 227//17 29//17 231//17
f 227//18 25//18 27//18
f 25//18 227//18 226//18
f 226//19 23//19 25//19
f 23//19 226//19 225//19
f 225//20 21//20 23//20
f 21//20 225//20 224//20
f 224//21 19//21 21//21
f 19//21 224//21 223//21
f 222//22 19//22 223//22
f 19//22 222//22 17//22
f 221//23 17//23 222//23
f 17//23 221//23 14//23
f 183//24 14//24 221//24
f 14//24 183//24 15//24
f 182//25 15//25 183//25
f 15//25 182//25 13//25
f 184//26 13//26 182//26
f 13//26 184//26 16//26
f 186//27 16//27 184//27
f 16//27 186//27 18//27
f 186//28 20//28 18//28
f 20//28 186//28 188//28
f 188//29 22//29 20//29
f 22//29 188//29 190//29
f 190//30 24//30 22//30
f 24//30 190//30 192//30
f 170//11 86//11 84//11
f 86//11 170//11 172//11
f 86//12 174//12 88//12
f 174//12 86//12 172//12
f 88//13 216//13 90//13
f 216//13 88//13 174//13
f 90//14 237//14 92//14
f 237//14 90//14 216//14
f 92//15 240//15 91//15
f 240//15 92//15 237//15
f 91//16 239//16 89//16
f 239//16 91//16 240//16
f 89//17 238//17 87//17
f 238//17 89//17 239//17
f 238//18 85//18 87//18
f 85//18 238//18 236//18
f 236//19 83//19 85//19
f 83//19 236//19 235//19
f 235//20 81//20 83//20
f 81//20 235//20 234//20
f 234//21 79//21 81//21
f 79//21 234//21 233//21
f 232//22 79//22 233//22
f 79//22 232//22 77//22
f 230//23 77//23 232//23
f 77//23 230//23 74//23
f 161//24 74//24 230//24
f 74//24 161//24 75//24
f 160//25 75//25 161//25
f 75//25 160//25 73//25
f 162//26 73//26 160//26
f 73//26 162//26 76//26
f 164//27 76//27 162//27
f 76//27 164//27 78//27
f 164//28 80//28 78//28
f 80//28 164//28 166//28
f 166//29 82//29 80//29
f 82//29 166//29 168//29
f 168//30 84//30 82//30
f 84//30 168//30 170//30
f 206//11 46//11 44//11
f 46//11 206//11 207//11
f 46//12 211//12 48//12
f 211//12 46//12 207//12
f 48//13 209//13 50//13
f 209//13 48//13 211//13
f 50//14 198//14 52//14
f 198//14 50//14 209//14
f 52//15 196//15 51//15
f 196//15 52//15 198//15
f 51//16 157//16 49//16
f 157//16 51//16 196//16
f 49//17 193//17 47//17
f 193//17 49//17 157//17
f 193//18 45//18 47//18
f 45//18 193//18 191//18
f 191//19 43//19 45//19
f 43//19 191//19 189//19
f 189//20 41//20 43//20
f 41//20 189//20 187//20
f 187//21 39//21 41//21
f 39//21 187//21 185//21
f 180//22 39//22 185//22
f 39//22 180//22 37//22
f 199//23 37//23 180//23
f 37//23 199//23 34//23
f 200//24 34//24 199//24
f 34//24 200//24 35//24
f 201//25 35//25 200//25
f 35//25 201//25 33//25
f 202//26 33//26 201//26
f 33//26 202//26 36//26
f 203//27 36//27 202//27
f 36//27 203//27 38//27
f 203//28 40//28 38//28
f 40//28 203//28 204//28
f 204//29 42//29 40//29
f 42//29 204//29 205//29
f 205//30 44//30 42//30
f 44//30 205//30 206//30
f 220//11 66//11 64//11
f 66//11 220//11 219//11
f 66//12 218//12 68//12
f 218//12 66//12 219//12
f 68//13 217//13 70//13
f 217//13 68//13 218//13
f 70//14 177//14 72//14
f 177//14 70//14 217//14
f 72//15 176//15 71//15
f 176//15 72//15 177//15
f 71//16 173//16 69//16
f 173//16 71//16 176//16
f 69//17 171//17 67//17
f 171//17 69//17 173//17
f 171//18 65//18 67//18
f 65//18 171//18 169//18
f 169//19 63//19 65//19
f 63//19 169//19 167//19
f 167//20 61//20 63//20
f 61//20 167//20 165//20
f 165//21 59//21 61//21
f 59//21 165//21 163//21
f 158//22 59//22 163//22
f 59//22 158//22 57//22
f 195//23 57//23 158//23
f 57//23 195//23 54//23
f 197//24 54//24 195//24
f 54//24 197//24 55//24
f 210//25 55//25 197//25
f 55//25 210//25 53//25
f 212//26 53//26 210//26
f 53//26 212//26 56//26
f 213//27 56//27 212//27
f 56//27 213//27 58//27
f 213//28 60//28 58//28
f 60//28 213//28 214//28
f 214//29 62//29 60//29
f 62//29 214//29 215//29
f 215//30 64//30 62//30
f 64//30 215//30 220//30
